<svg width="1269" height="493" viewBox="0 0 1269 493" fill="none" xmlns="http://www.w3.org/2000/svg">
<path fill-rule="evenodd" clip-rule="evenodd" d="M824.047 214.431C808.883 127.609 733.131 61.6128 641.963 61.6128C542.002 61.6128 460.572 140.956 457.223 240.098L428.98 211.856L395.579 240.16C398.917 106.956 507.949 0 641.963 0C767.38 0 870.917 93.6729 886.421 214.868L852.896 243.278L824.047 214.431ZM417.682 197.161C417.682 199.883 415.475 202.09 412.753 202.09C410.031 202.09 407.824 199.883 407.824 197.161C407.824 194.439 410.031 192.232 412.753 192.232C415.475 192.232 417.682 194.439 417.682 197.161Z" fill="#D26A5E"/>
<path fill-rule="evenodd" clip-rule="evenodd" d="M641.963 492.902C778.081 492.902 888.426 382.562 888.426 246.451C888.426 238.793 888.077 231.216 887.393 223.736L852.482 253.321L825.757 226.596C826.453 233.119 826.811 239.743 826.811 246.451C826.811 348.534 744.052 431.289 641.963 431.289C541.225 431.289 459.308 350.708 457.16 250.49L428.566 221.898L395.524 249.898C397.369 384.42 506.997 492.902 641.963 492.902ZM871.174 268.632C873.896 268.632 876.103 266.425 876.103 263.703C876.103 260.98 873.896 258.774 871.174 258.774C868.452 258.774 866.245 260.98 866.245 263.703C866.245 266.425 868.452 268.632 871.174 268.632Z" fill="#D26A5E"/>
<path d="M294.558 95.881C291.009 102.387 285.538 105.64 278.145 105.64C273.709 105.64 268.681 104.014 263.062 100.761C257.443 97.5075 250.493 93.9586 242.212 90.114C234.227 85.9736 224.616 82.2768 213.377 79.0237C202.139 75.4748 188.831 73.7003 173.452 73.7003C160.144 73.7003 148.166 75.4748 137.52 79.0237C126.873 82.2768 117.705 86.8608 110.016 92.7757C102.622 98.6905 96.8553 105.64 92.7149 113.625C88.8703 121.315 86.9479 129.743 86.9479 138.911C86.9479 150.445 90.2011 160.057 96.7074 167.746C103.509 175.435 112.382 182.09 123.324 187.709C134.267 193.328 146.688 198.355 160.588 202.791C174.487 206.932 188.683 211.516 203.174 216.543C217.961 221.275 232.305 226.599 246.205 232.513C260.104 238.428 272.526 245.822 283.468 254.694C294.41 263.566 303.135 274.509 309.641 287.521C316.443 300.238 319.844 315.617 319.844 333.657C319.844 354.359 316.147 373.582 308.754 391.327C301.36 408.775 290.418 424.006 275.927 437.019C261.435 449.735 243.691 459.791 222.693 467.184C201.696 474.578 177.445 478.274 149.941 478.274C118.592 478.274 90.2011 473.247 64.7674 463.192C39.3336 452.841 17.7445 439.68 0 423.71L18.6317 393.545C20.9976 389.7 23.8072 386.743 27.0603 384.672C30.3135 382.602 34.4539 381.567 39.4815 381.567C44.8048 381.567 50.4239 383.637 56.3387 387.778C62.2535 391.918 69.3513 396.502 77.6321 401.53C86.2086 406.557 96.5595 411.141 108.685 415.282C120.81 419.422 135.893 421.492 153.933 421.492C169.312 421.492 182.768 419.57 194.302 415.725C205.836 411.585 215.448 406.114 223.137 399.312C230.826 392.509 236.445 384.672 239.994 375.8C243.839 366.928 245.761 357.464 245.761 347.409C245.761 334.988 242.36 324.785 235.558 316.8C229.052 308.519 220.327 301.569 209.385 295.95C198.442 290.035 185.873 285.008 171.678 280.867C157.778 276.431 143.435 271.847 128.647 267.115C114.156 262.383 99.8127 257.06 85.6171 251.145C71.7173 244.935 59.2961 237.245 48.3537 228.077C37.4113 218.909 28.539 207.671 21.737 194.363C15.2307 180.759 11.9775 164.345 11.9775 145.122C11.9775 127.969 15.5264 111.555 22.6242 95.881C29.722 79.9109 40.073 66.0111 53.6771 54.1814C67.2812 42.056 83.9905 32.4444 103.805 25.3467C123.62 18.2489 146.244 14.7 171.678 14.7C201.252 14.7 227.721 19.4318 251.084 28.8955C274.744 38.0635 295.15 50.7804 312.303 67.0462L294.558 95.881Z" fill="#F0F0F0"/>
<path d="M1243.4 95.881C1239.85 102.387 1234.38 105.64 1226.98 105.64C1222.55 105.64 1217.52 104.014 1211.9 100.761C1206.28 97.5075 1199.33 93.9586 1191.05 90.114C1183.06 85.9736 1173.45 82.2768 1162.21 79.0237C1150.98 75.4748 1137.67 73.7003 1122.29 73.7003C1108.98 73.7003 1097 75.4748 1086.36 79.0237C1075.71 82.2768 1066.54 86.8608 1058.85 92.7757C1051.46 98.6905 1045.69 105.64 1041.55 113.625C1037.71 121.315 1035.78 129.743 1035.78 138.911C1035.78 150.445 1039.04 160.057 1045.54 167.746C1052.35 175.435 1061.22 182.09 1072.16 187.709C1083.1 193.328 1095.52 198.355 1109.42 202.791C1123.32 206.932 1137.52 211.516 1152.01 216.543C1166.8 221.275 1181.14 226.599 1195.04 232.513C1208.94 238.428 1221.36 245.822 1232.3 254.694C1243.25 263.566 1251.97 274.509 1258.48 287.521C1265.28 300.238 1268.68 315.617 1268.68 333.657C1268.68 354.359 1264.98 373.582 1257.59 391.327C1250.2 408.775 1239.25 424.006 1224.76 437.019C1210.27 449.735 1192.53 459.791 1171.53 467.184C1150.53 474.578 1126.28 478.274 1098.78 478.274C1067.43 478.274 1039.04 473.247 1013.6 463.192C988.17 452.841 966.581 439.68 948.837 423.71L967.468 393.545C969.834 389.7 972.644 386.743 975.897 384.672C979.15 382.602 983.291 381.567 988.318 381.567C993.642 381.567 999.261 383.637 1005.18 387.778C1011.09 391.918 1018.19 396.502 1026.47 401.53C1035.05 406.557 1045.4 411.141 1057.52 415.282C1069.65 419.422 1084.73 421.492 1102.77 421.492C1118.15 421.492 1131.6 419.57 1143.14 415.725C1154.67 411.585 1164.28 406.114 1171.97 399.312C1179.66 392.509 1185.28 384.672 1188.83 375.8C1192.68 366.928 1194.6 357.464 1194.6 347.409C1194.6 334.988 1191.2 324.785 1184.39 316.8C1177.89 308.519 1169.16 301.569 1158.22 295.95C1147.28 290.035 1134.71 285.008 1120.51 280.867C1106.61 276.431 1092.27 271.847 1077.48 267.115C1062.99 262.383 1048.65 257.06 1034.45 251.145C1020.55 244.935 1008.13 237.245 997.191 228.077C986.248 218.909 977.376 207.671 970.574 194.363C964.067 180.759 960.814 164.345 960.814 145.122C960.814 127.969 964.363 111.555 971.461 95.881C978.559 79.9109 988.91 66.0111 1002.51 54.1814C1016.12 42.056 1032.83 32.4444 1052.64 25.3467C1072.46 18.2489 1095.08 14.7 1120.51 14.7C1150.09 14.7 1176.56 19.4318 1199.92 28.8955C1223.58 38.0635 1243.99 50.7804 1261.14 67.0462L1243.4 95.881Z" fill="#F0F0F0"/>
</svg>
